<svg xmlns="http://www.w3.org/2000/svg" xmlns:xlink="http://www.w3.org/1999/xlink"><symbol id="facebook" viewBox="0 0 510 510">
<g>
	<g id="post-facebook">
		<path d="M459,0H51C22.95,0,0,22.95,0,51v408c0,28.05,22.95,51,51,51h408c28.05,0,51-22.95,51-51V51C510,22.95,487.05,0,459,0z     M433.5,51v76.5h-51c-15.3,0-25.5,10.2-25.5,25.5v51h76.5v76.5H357V459h-76.5V280.5h-51V204h51v-63.75    C280.5,91.8,321.3,51,369.75,51H433.5z" fill="#f19824"/>
	</g>
</g>
</symbol><symbol id="heart-orange" viewBox="0 0 426.667 426.667">
<g>
	<g>
		<path d="M309.333,17.6c-37.12,0-72.747,17.28-96,44.48c-23.253-27.2-58.88-44.48-96-44.48C51.52,17.6,0,69.12,0,134.933    c0,80.533,72.533,146.347,182.4,246.08l30.933,28.053l30.933-28.053c109.867-99.733,182.4-165.547,182.4-246.08    C426.667,69.12,375.147,17.6,309.333,17.6z" fill="#f19824"/>
	</g>
</g>
</symbol><symbol id="instagram" viewBox="0 0 97.395 97.395">
<g>
	<path d="M12.501,0h72.393c6.875,0,12.5,5.09,12.5,12.5v72.395c0,7.41-5.625,12.5-12.5,12.5H12.501C5.624,97.395,0,92.305,0,84.895   V12.5C0,5.09,5.624,0,12.501,0L12.501,0z M70.948,10.821c-2.412,0-4.383,1.972-4.383,4.385v10.495c0,2.412,1.971,4.385,4.383,4.385   h11.008c2.412,0,4.385-1.973,4.385-4.385V15.206c0-2.413-1.973-4.385-4.385-4.385H70.948L70.948,10.821z M86.387,41.188h-8.572   c0.811,2.648,1.25,5.453,1.25,8.355c0,16.2-13.556,29.332-30.275,29.332c-16.718,0-30.272-13.132-30.272-29.332   c0-2.904,0.438-5.708,1.25-8.355h-8.945v41.141c0,2.129,1.742,3.872,3.872,3.872h67.822c2.13,0,3.872-1.742,3.872-3.872V41.188   H86.387z M48.789,29.533c-10.802,0-19.56,8.485-19.56,18.953c0,10.468,8.758,18.953,19.56,18.953   c10.803,0,19.562-8.485,19.562-18.953C68.351,38.018,59.593,29.533,48.789,29.533z" fill="#f19824"/>
</g>
</symbol><symbol id="linkedin" viewBox="0 0 510 510">
<g>
	<g id="post-linkedin">
		<path d="M459,0H51C22.95,0,0,22.95,0,51v408c0,28.05,22.95,51,51,51h408c28.05,0,51-22.95,51-51V51C510,22.95,487.05,0,459,0z     M153,433.5H76.5V204H153V433.5z M114.75,160.65c-25.5,0-45.9-20.4-45.9-45.9s20.4-45.9,45.9-45.9s45.9,20.4,45.9,45.9    S140.25,160.65,114.75,160.65z M433.5,433.5H357V298.35c0-20.399-17.85-38.25-38.25-38.25s-38.25,17.851-38.25,38.25V433.5H204    V204h76.5v30.6c12.75-20.4,40.8-35.7,63.75-35.7c48.45,0,89.25,40.8,89.25,89.25V433.5z" fill="#f19824"/>
	</g>
</g>
</symbol><symbol id="orange-logo" viewBox="0 0 512 512">
<g>
	<g>
		<path d="M502.724,123.362H9.276c-5.123,0-9.276,4.153-9.276,9.276c0,141.159,114.841,256,256,256s256-114.841,256-256    C512,127.515,507.847,123.362,502.724,123.362z M441.938,141.912c-2.187,44.357-19.969,84.68-47.967,115.586L278.384,141.912    H441.938z M265.281,155.045l115.572,115.572c-30.906,27.992-71.222,45.772-115.572,47.96V155.045z M233.622,141.912    L118.027,257.496c-27.996-30.907-45.778-71.228-47.966-115.584H233.622z M246.729,155.043v163.534    c-44.354-2.187-84.676-19.968-115.583-47.962L246.729,155.043z M256,370.086c-127.821,0-232.376-101.528-237.269-228.173h32.767    C56.366,250.509,146.225,337.36,256,337.36s199.635-86.851,204.503-195.446h32.767C488.376,268.558,383.821,370.086,256,370.086z" fill="#f19824"/>
	</g>
</g>
</symbol><symbol id="right-arrow" viewBox="0 0 31.49 31.49">
<path d="M21.205,5.007c-0.429-0.444-1.143-0.444-1.587,0c-0.429,0.429-0.429,1.143,0,1.571l8.047,8.047H1.111  C0.492,14.626,0,15.118,0,15.737c0,0.619,0.492,1.127,1.111,1.127h26.554l-8.047,8.032c-0.429,0.444-0.429,1.159,0,1.587  c0.444,0.444,1.159,0.444,1.587,0l9.952-9.952c0.444-0.429,0.444-1.143,0-1.571L21.205,5.007z" fill="#FFFFFF"/>
</symbol></svg>
